<?xml version="1.0" encoding="UTF-8" standalone="no"?>
<!DOCTYPE svg PUBLIC "-//W3C//DTD SVG 1.1//EN" "http://www.w3.org/Graphics/SVG/1.1/DTD/svg11.dtd">
<svg width="100%" height="100%" viewBox="0 0 376 525" version="1.1" xmlns="http://www.w3.org/2000/svg" xmlns:xlink="http://www.w3.org/1999/xlink" xml:space="preserve" xmlns:serif="http://www.serif.com/" style="fill-rule:evenodd;clip-rule:evenodd;stroke-linecap:round;stroke-linejoin:round;stroke-miterlimit:1.5;">
    <g transform="matrix(1,0,0,1,-7171.4,-1571.07)">
        <g transform="matrix(1.69627,0,0,0.62539,-2978.45,0)">
            <g transform="matrix(1.03214,0,0,1.599,5852.86,1154.74)">
                <g transform="matrix(1.1579,0,0,2.61282,-2476.03,-509.658)">
                    <g id="TEMP">
                        <path id="Round-Transparent-Container" serif:id="Round Transparent Container" d="M2432.85,534.951C2432.85,526.677 2424.19,519.96 2413.53,519.96L2267.12,519.96C2256.46,519.96 2247.8,526.677 2247.8,534.951L2247.8,705.901C2247.8,714.175 2256.46,720.892 2267.12,720.892L2413.53,720.892C2424.19,720.892 2432.85,714.175 2432.85,705.901L2432.85,534.951Z" style="fill:none;"/>
                        <clipPath id="_clip1">
                            <path id="Round-Transparent-Container1" serif:id="Round Transparent Container" d="M2432.85,534.951C2432.85,526.677 2424.19,519.96 2413.53,519.96L2267.12,519.96C2256.46,519.96 2247.8,526.677 2247.8,534.951L2247.8,705.901C2247.8,714.175 2256.46,720.892 2267.12,720.892L2413.53,720.892C2424.19,720.892 2432.85,714.175 2432.85,705.901L2432.85,534.951Z"/>
                        </clipPath>
                        <g clip-path="url(#_clip1)">
                            <path id="Border-and-25--white--overlay" serif:id="Border and 25% white  overlay" d="M2432.85,534.951C2432.85,526.677 2424.19,519.96 2413.53,519.96L2267.12,519.96C2256.46,519.96 2247.8,526.677 2247.8,534.951L2247.8,705.901C2247.8,714.175 2256.46,720.892 2267.12,720.892L2413.53,720.892C2424.19,720.892 2432.85,714.175 2432.85,705.901L2432.85,534.951Z" style="fill:white;stroke:black;stroke-width:1.28px;"/>
                            <g transform="matrix(2.06697,0,0,1.43051,-3179.57,-471.277)">
                                <path d="M2670.52,727.04L2699.16,763.158L2670.52,799.277L2641.89,763.158L2670.52,727.04Z" style="fill:rgb(212,16,16);"/>
                            </g>
                        </g>
                    </g>
                </g>
                <g transform="matrix(0.571175,0,0,1,-900.499,484.788)">
                    <text x="1952.64px" y="661.523px" style="font-family:'AmericanTypewriter', 'American Typewriter', serif;font-size:104.667px;">6</text>
                </g>
            </g>
        </g>
    </g>
</svg>
